<?xml version="1.0" encoding="UTF-8" standalone="no"?>
<!-- Generator: Adobe Illustrator 19.2.1, SVG Export Plug-In . SVG Version: 6.00 Build 0)  -->

<svg
   version="1.1"
   id="svg3875"
   inkscape:version="1.4 (86a8ad7, 2024-10-11)"
   sodipodi:docname="Asus blue logo.svg"
   x="0px"
   y="0px"
   viewBox="0 0 500 105.39845"
   xml:space="preserve"
   width="500"
   height="105.39845"
   xmlns:inkscape="http://www.inkscape.org/namespaces/inkscape"
   xmlns:sodipodi="http://sodipodi.sourceforge.net/DTD/sodipodi-0.dtd"
   xmlns="http://www.w3.org/2000/svg"
   xmlns:svg="http://www.w3.org/2000/svg"
   xmlns:rdf="http://www.w3.org/1999/02/22-rdf-syntax-ns#"
   xmlns:cc="http://creativecommons.org/ns#"
   xmlns:dc="http://purl.org/dc/elements/1.1/"><metadata
     id="metadata11"><rdf:RDF><cc:Work
         rdf:about=""><dc:format>image/svg+xml</dc:format><dc:type
           rdf:resource="http://purl.org/dc/dcmitype/StillImage" /></cc:Work></rdf:RDF></metadata><defs
     id="defs9" /><sodipodi:namedview
     pagecolor="#ffffff"
     bordercolor="#666666"
     borderopacity="1"
     objecttolerance="10"
     gridtolerance="10"
     guidetolerance="10"
     inkscape:pageopacity="0"
     inkscape:pageshadow="2"
     inkscape:window-width="1920"
     inkscape:window-height="1001"
     id="namedview7"
     showgrid="false"
     inkscape:zoom="2"
     inkscape:cx="241"
     inkscape:cy="41.75"
     inkscape:window-x="-9"
     inkscape:window-y="-9"
     inkscape:window-maximized="1"
     inkscape:current-layer="svg3875"
     inkscape:showpageshadow="2"
     inkscape:pagecheckerboard="0"
     inkscape:deskcolor="#d1d1d1" /><style
     type="text/css"
     id="style3">
	.st0{fill:#00539B;}
</style><path
     class="st0"
     d="M 48.05221,29.661855 0,105.20071 H 32.82579 L 79.09827,33.023532 Z M 245.89677,27.981016 V 0 h -93.43484 c -12.7546,0.790982 -18.29147,6.921099 -22.44414,11.271505 -4.44927,4.647023 -6.92109,14.435436 -6.92109,14.435436 V 0.197745 H 73.36365 c -3.75716,0 -7.31659,1.581966 -9.98616,5.339134 -2.76843,3.658296 -14.13881,22.444137 -14.13881,22.444137 z m 254.10323,0 V 0 h -99.96046 c -12.65572,0.790982 -18.29147,6.921099 -22.44413,11.271505 -4.44928,4.647023 -6.9211,14.435436 -6.9211,14.435436 v 2.274075 z M 278.72257,0.098873 h -27.98103 v 27.882143 h 27.98103 z m 91.65512,0 h -27.88214 v 27.882143 h 27.88214 z m 0,37.967174 -27.48665,-1.680838 V 68.71663 c 0,0 -0.0989,9.29405 -9.0963,9.29405 h -47.06348 c 0,0 -8.00869,-0.69212 -8.00869,-9.19518 V 32.034803 l -27.6844,-1.977457 V 79.59264 c 4.44927,23.72948 25.90468,25.60807 25.90468,25.60807 0,0 2.17521,0.0989 2.5707,0.19774 h 63.77298 c 0,0 27.2889,-2.1752 27.2889,-28.47538 z M 94.62131,105.20071 h 130.70992 c 22.74075,-4.54815 25.1137,-25.31145 25.1137,-25.31145 1.0876,-6.13012 0.49436,-11.17263 0.49436,-11.17263 -0.6921,-4.15266 -8.60194,-22.54301 -25.60806,-24.124975 -10.18391,-0.988729 -100.85031,-8.206446 -100.85031,-8.206446 1.77971,9.096301 5.8335,13.743321 8.60193,16.314021 6.32787,6.03124 16.31403,7.81095 16.31403,7.81095 2.37295,0.19774 69.9031,5.8335 69.9031,5.8335 2.1752,0.0989 6.22899,0.69211 6.13011,6.03124 0,0.69211 -0.59323,5.33913 -5.73462,5.33913 H 121.91022 V 36.187463 L 94.72019,34.210006 c -0.0989,0 -0.0989,70.990704 -0.0989,70.990704 z m 275.95412,0.19774 h 100.05933 c 25.1137,-1.48309 28.67313,-25.31145 28.67313,-25.31145 0.88986,-6.22899 0.19774,-11.37037 0.19774,-11.37037 -0.6921,-5.63576 -8.70081,-22.641882 -25.80581,-24.322721 -10.08503,-0.988728 -101.34467,-6.327862 -101.34467,-6.327862 2.66957,9.392923 6.32787,12.260233 9.0963,14.830923 6.32786,6.13011 15.72078,7.51434 15.72078,7.51434 2.37295,0.19774 70.59522,5.93237 70.59522,5.93237 2.17521,0.0989 6.62448,0.29661 6.62448,5.63575 0,1.58197 -0.79098,3.26281 -1.77972,4.15266 0,0 -2.37294,1.28535 -4.64701,1.28535 h -97.09314 z"
     id="path5"
     inkscape:connector-curvature="0"
     style="fill:#00539b;stroke-width:0.531046"
     sodipodi:nodetypes="cccccccccccscccccccccccccccccccccccscscccccccccccccccccccscccccccccccccscscc" /></svg>
