<?xml version="1.0" encoding="utf-8"?>
<!-- Generator: Adobe Illustrator 27.7.0, SVG Export Plug-In . SVG Version: 6.00 Build 0)  -->
<svg version="1.1" id="圖層_1" xmlns="http://www.w3.org/2000/svg" xmlns:xlink="http://www.w3.org/1999/xlink" x="0px" y="0px"
	 viewBox="0 0 720.5 94" style="enable-background:new 0 0 720.5 94;" xml:space="preserve">
<style type="text/css">
	.st0{fill:#231815;}
	.st1{fill:#E50012;}
</style>
<g>
	<path class="st0" d="M266.7,15.5c-15.3,0-25,6.1-27.2,17l-6,28.8c-2.3,11.2,7.9,16,20.4,16c12.5,0,24.7-4.9,27-16l5.9-28.8
		C289.2,21.6,282,15.5,266.7,15.5 M267.7,30.7l-6.5,31.5c-0.5,2.2-1.9,4.2-5,4.2c-3.1,0-3.7-2-3.2-4.2l6.5-31.5
		c0.5-2.2,1.9-4.2,5-4.2C267.5,26.5,268.1,28.5,267.7,30.7 M357.8,16.3l-14,46.7h-0.2l3-46.7h-21.7l-15.8,46.7h-0.2l4.4-46.7h-19.6
		l-1.5,60.4h23.2l16.4-48.1h0.2l-3.5,48.1h24l22.7-60.4H357.8z M237.1,17.6c2.7-13-7.2-16.1-23.6-16.1h-25.2L181,36.5h-17.3l2.3,11
		l12.8,0l-6,29.1h20.6l6-29h7.6c12.2,0,25-5,27.3-16.3L237.1,17.6z M215,24.6c-1.8,8.9-3,12.3-10.2,12.3H202l-0.5,0l0.1-0.3l5-24.3
		h3.2C217.1,12.3,216.8,15.7,215,24.6 M709.3,15.5c-7.2,0-12.3,3.4-16,8.7H693l1.6-7.9H675l-12.5,60.4h19.6l8.8-42.4
		c0.5-2.4,1.9-4.9,5.1-4.9c3.2,0,3.6,2.5,3.1,4.9l-3,14.7h19.6l4.4-21.5C721.5,21.1,719.3,15.5,709.3,15.5 M599.9,1.5l-15.5,75.2
		h19.6l15.5-75.2H599.9z M567.7,15.5c-15.3,0-25,6.1-27.2,17l-6,28.8c-2.3,11.2,7.9,16,20.4,16c12.5,0,24.7-4.9,27-16l6-28.8
		C590.2,21.6,583,15.5,567.7,15.5 M568.7,30.7l-6.5,31.5c-0.5,2.2-1.9,4.2-5,4.2c-3.1,0-3.7-2-3.2-4.2l6.5-31.5
		c0.4-2.2,1.9-4.2,5-4.2C568.6,26.5,569.2,28.5,568.7,30.7 M646,15.5c-15.3,0-25,6.1-27.2,17l-6,28.8c-2.3,11.2,7.9,16,20.4,16
		s24.8-4.9,27.1-16l5.9-28.8C668.4,21.6,661.3,15.5,646,15.5 M647,30.7l-6.5,31.5c-0.5,2.2-1.9,4.2-5,4.2c-3.1,0-3.7-2-3.2-4.2
		l6.5-31.5c0.5-2.2,1.9-4.2,5-4.2C646.8,26.5,647.4,28.5,647,30.7 M508.7,60.2c-0.6,3.1-2.3,5.9-6.8,5.9c-4.2,0-4.8-2.9-4.1-5.9
		l8.7-42.2c0.6-3.1,2.3-5.9,6.6-5.9c4.5,0,5,2.8,4.4,5.9l-2.1,10.3h20.6l1.7-8.2C541,3.8,530.6,0,515.5,0c-13.7,0-26.9,4.8-30.5,22
		L478,56.2c-3.5,17.2,7.8,22,21.4,22c17.4,0,27.6-6.8,30.5-20.8l2.1-9.9h-20.5L508.7,60.2z M397.3,60.6c-0.7,3.6-2.2,5.8-5.3,5.8
		c-2.6,0-3.6-2.2-2.9-5.8l2.5-12.3h27.8l3.3-15.8c2.7-13-7.7-17-20.2-17c-15.3,0-25,6.1-27.2,17l-5.9,28.8c-2.3,11.2,7.9,16,20.4,16
		c13.8,0,24.6-4.3,27-15.7l1.8-8.9h-19.6L397.3,60.6z M395.4,30.1c0.5-2.3,2.1-3.6,4.8-3.6c2.7,0,3.8,1.3,3.4,3.6l-1.7,8.2h-8.2
		L395.4,30.1z M465.8,15.5c-7.2,0-12.2,3.4-16,8.7h-0.4l1.6-7.9h-19.6l-12.5,60.4h19.6l8.8-42.4c0.5-2.4,1.9-4.9,5.1-4.9
		c3.2,0,3.6,2.5,3.1,4.9l-3,14.7h19.6l4.5-21.5C478,21.1,475.8,15.5,465.8,15.5"/>
	<path class="st0" d="M707.2,67.5c3.4,0,6.3,2.6,6.3,6.2c0,3.6-2.9,6.2-6.3,6.2c-3.4,0-6.3-2.6-6.3-6.2
		C700.9,70.1,703.8,67.5,707.2,67.5 M707.2,68.5c-2.9,0-5.1,2.2-5.1,5.2c0,3,2.2,5.2,5.1,5.2c2.8,0,5.1-2.2,5.1-5.2
		C712.3,70.7,710.1,68.5,707.2,68.5 M705.9,77.3h-1.1v-7.2h2.7c1.7,0,2.5,0.6,2.5,2c0,1.3-0.8,1.8-1.9,2l2,3.2h-1.2l-1.9-3.1h-1.2
		V77.3z M705.9,73.3h1.3c1.3,0,1.8-0.4,1.8-1.2c0-0.7-0.3-1.1-1.6-1.1h-1.5V73.3z"/>
	<path class="st1" d="M7.8,49.7l4.2,6h32.2c9.1,0,17.8-7.4,19.5-16.5c0.8-4.5-0.2-8.7-2.9-11.9c-2.6-3.1-6.5-4.8-10.9-4.8H17.7
		l-6.1,5.8l4.6-26.2h37.4c9.8,0,18.3,3.8,24,10.6l0.7,0.9l1-0.8c8.2-6.9,18.1-10.7,27.9-10.7h37.2l-4.7,26.4l-4.2-6h-32.2
		c-9.1,0-17.8,7.4-19.5,16.5c-0.8,4.5,0.2,8.7,2.9,11.9c2.6,3.1,6.5,4.8,10.9,4.8h32.1l6.1-5.8l-4.6,26.2H94
		c-9.8,0-18.3-3.8-24-10.6l-0.7-0.9l-1,0.8c-8.2,6.9-18.1,10.7-27.9,10.7H22L0,94L7.8,49.7z"/>
</g>
</svg>
