<?xml version="1.0" encoding="UTF-8" standalone="no"?>
<!-- Created with Inkscape (http://www.inkscape.org/) -->

<svg
   width="132.29167mm"
   height="16.350876mm"
   viewBox="0 0 132.29167 16.350876"
   version="1.1"
   id="svg1"
   inkscape:version="1.4 (86a8ad7, 2024-10-11)"
   sodipodi:docname="Sapphire wordmark.svg"
   xmlns:inkscape="http://www.inkscape.org/namespaces/inkscape"
   xmlns:sodipodi="http://sodipodi.sourceforge.net/DTD/sodipodi-0.dtd"
   xmlns:xlink="http://www.w3.org/1999/xlink"
   xmlns="http://www.w3.org/2000/svg"
   xmlns:svg="http://www.w3.org/2000/svg">
  <sodipodi:namedview
     id="namedview1"
     pagecolor="#ffffff"
     bordercolor="#000000"
     borderopacity="0.25"
     inkscape:showpageshadow="2"
     inkscape:pageopacity="0.0"
     inkscape:pagecheckerboard="0"
     inkscape:deskcolor="#d1d1d1"
     inkscape:document-units="mm"
     inkscape:zoom="1.9729351"
     inkscape:cx="219.46997"
     inkscape:cy="56.514785"
     inkscape:window-width="1920"
     inkscape:window-height="1001"
     inkscape:window-x="-9"
     inkscape:window-y="-9"
     inkscape:window-maximized="1"
     inkscape:current-layer="layer1" />
  <defs
     id="defs1">
    <clipPath
       id="f">
      <path
         id="use3"
         d="M -545.999,-657 H 1181.999 V 1071 H -545.999 Z" />
    </clipPath>
    <clipPath
       id="h">
      <path
         id="use4"
         d="M -545.999,-657 H 1181.999 V 1071 H -545.999 Z" />
    </clipPath>
    <clipPath
       id="j">
      <use
         xlink:href="#i"
         overflow="visible"
         id="use5" />
    </clipPath>
    <clipPath
       id="l">
      <use
         xlink:href="#k"
         overflow="visible"
         id="use6" />
    </clipPath>
    <clipPath
       id="n">
      <use
         xlink:href="#m"
         overflow="visible"
         id="use7" />
    </clipPath>
    <clipPath
       id="p">
      <use
         xlink:href="#o"
         overflow="visible"
         id="use8" />
    </clipPath>
    <clipPath
       id="r">
      <use
         xlink:href="#q"
         overflow="visible"
         id="use9" />
    </clipPath>
    <clipPath
       id="t">
      <use
         xlink:href="#s"
         overflow="visible"
         id="use10" />
    </clipPath>
    <clipPath
       id="v">
      <use
         xlink:href="#u"
         overflow="visible"
         id="use11" />
    </clipPath>
    <path
       id="i"
       d="M -545.999,-657 H 1181.999 V 1071 H -545.999 Z" />
    <path
       id="k"
       d="M -545.999,-657 H 1181.999 V 1071 H -545.999 Z" />
    <path
       id="m"
       d="M -545.999,-657 H 1181.999 V 1071 H -545.999 Z" />
    <path
       id="o"
       d="M -545.999,-657 H 1181.999 V 1071 H -545.999 Z" />
    <path
       id="q"
       d="M -545.999,-657 H 1181.999 V 1071 H -545.999 Z" />
    <path
       id="s"
       d="M -545.999,-657 H 1181.999 V 1071 H -545.999 Z" />
    <path
       id="u"
       d="M -545.999,-657 H 1181.999 V 1071 H -545.999 Z" />
  </defs>
  <g
     inkscape:label="Layer 1"
     inkscape:groupmode="layer"
     id="layer1"
     transform="translate(-71.656884,-97.194741)">
    <path
       clip-path="url(#f)"
       fill="#2649a2"
       d="m 86.16,299.938 v 10.238 H 27.068 c 0,0 -2.834,0.693 -4.277,2.016 -1.685,1.541 -2.017,3.746 -2.017,3.746 v 8.959 c 0,0 0.134,2.16 1.654,3.68 1.52,1.521 4.426,2.4 4.426,2.4 h 46.188 c 0,0 4.024,-0.01 8.248,3.156 3.731,2.797 4.871,7.402 4.871,7.402 v 22.08 c 0,0 -1.777,4.773 -5.067,7.32 -3.323,2.572 -8.158,2.92 -8.158,2.92 H 10.961 v -10.24 H 67.28 c 0,0 4.418,-0.188 7.005,-1.689 2.362,-1.371 2.916,-4.068 2.916,-4.068 V 346.23 c 0,0 -1.421,-2.074 -3.288,-3.156 -2.164,-1.252 -4.818,-1.537 -4.818,-1.537 H 24.827 c 0,0 -5.613,-0.863 -8.896,-3.572 -3.112,-2.568 -3.902,-6.988 -3.902,-6.988 l -0.105,-20.799 c 0,0 1.305,-4.756 4.598,-7.346 3.214,-2.529 8.415,-2.895 8.415,-2.895 H 86.16 Z"
       id="path3"
       transform="matrix(0.22119393,0,0,0.22119393,69.232377,30.850497)"
       style="stroke-width:4.70085" />
    <path
       clip-path="url(#h)"
       fill="#d3181f"
       d="m 91.602,373.857 21.652,-42.881 h 31.467 l 1.174,-1.279 -15.68,-29.76 h 10.238 l 38.188,73.92 h -10.134 l -16.854,-32.32 h -33.066 l -17.175,32.32 z"
       id="path4"
       transform="matrix(0.22119393,0,0,0.22119393,69.232377,30.850497)"
       style="stroke-width:4.70085" />
    <g
       id="g5"
       transform="matrix(0.22119393,0,0,0.22119393,69.232377,30.850497)"
       style="stroke-width:4.70085">
      <defs
         id="defs5">
        <path
           id="path66"
           d="M -545.999,-657 H 1181.999 V 1071 H -545.999 Z" />
      </defs>
      <clipPath
         id="clipPath1">
        <use
           xlink:href="#i"
           overflow="visible"
           id="use1" />
      </clipPath>
      <path
         clip-path="url(#j)"
         fill="#2649a2"
         d="m 185.362,299.938 h 57.388 c 0,0 5.194,0.096 9.034,2.752 5.134,3.551 5.259,7.486 5.259,7.486 v 20.801 c 0,0 0.053,4.135 -4.699,7.303 -5.146,3.432 -11.729,3.258 -11.729,3.258 h -44.693 v 32.32 h -10.561 v -42.881 h 52.266 c 0,0 5.221,-0.52 8.291,-2.086 1.802,-0.918 2.163,-3.248 2.163,-3.248 v -9.6 c 0,0 -0.026,-2.666 -4.067,-4.453 -2.626,-1.16 -7.025,-1.414 -7.025,-1.414 h -51.626 v -10.238 z"
         id="path5"
         style="stroke-width:4.70085" />
    </g>
    <g
       id="g6"
       transform="matrix(0.22119393,0,0,0.22119393,69.232377,30.850497)"
       style="stroke-width:4.70085">
      <defs
         id="defs6">
        <path
           id="path67"
           d="M -545.999,-657 H 1181.999 V 1071 H -545.999 Z" />
      </defs>
      <clipPath
         id="clipPath2">
        <use
           xlink:href="#k"
           overflow="visible"
           id="use2" />
      </clipPath>
      <path
         clip-path="url(#l)"
         fill="#2649a2"
         d="m 265.04,299.938 h 57.493 c 0,0 5.187,-0.061 9.317,2.611 4.989,3.229 5.509,7.627 5.509,7.627 v 20.801 c 0,0 -0.114,4.279 -5.463,7.914 -4.372,2.973 -10.856,2.646 -10.856,2.646 h -45.439 v 32.32 H 265.04 v -42.881 h 54.08 c 0,0 4.675,-0.367 7.37,-2.439 2.647,-2.033 2.229,-4.6 2.229,-4.6 v -7.787 c 0,0 -0.854,-5.975 -10.561,-5.975 h -53.12 z"
         id="path6"
         style="stroke-width:4.70085" />
    </g>
    <g
       id="g7"
       transform="matrix(0.22119393,0,0,0.22119393,69.232377,30.850497)"
       style="stroke-width:4.70085">
      <defs
         id="defs7">
        <path
           id="path68"
           d="M -545.999,-657 H 1181.999 V 1071 H -545.999 Z" />
      </defs>
      <clipPath
         id="clipPath12">
        <use
           xlink:href="#m"
           overflow="visible"
           id="use12" />
      </clipPath>
      <path
         clip-path="url(#n)"
         fill="#2649a2"
         d="m 347.601,299.938 h 8.96 v 31.039 h 65.92 v 42.881 h -9.28 v -32.32 h -56.64 v 32.32 h -8.96 z"
         id="path7"
         style="stroke-width:4.70085" />
    </g>
    <g
       id="g8"
       transform="matrix(0.22119393,0,0,0.22119393,69.232377,30.850497)"
       style="stroke-width:4.70085">
      <defs
         id="defs8">
        <path
           id="path69"
           d="M -545.999,-657 H 1181.999 V 1071 H -545.999 Z" />
      </defs>
      <clipPath
         id="clipPath13">
        <use
           xlink:href="#o"
           overflow="visible"
           id="use13" />
      </clipPath>
      <path
         clip-path="url(#p)"
         fill="#2649a2"
         d="m 437.199,299.938 h 9.602 v 73.92 h -9.602 z"
         id="path8"
         style="stroke-width:4.70085" />
    </g>
    <g
       id="g9"
       transform="matrix(0.22119393,0,0,0.22119393,69.232377,30.850497)"
       style="stroke-width:4.70085">
      <defs
         id="defs9">
        <path
           id="path70"
           d="M -545.999,-657 H 1181.999 V 1071 H -545.999 Z" />
      </defs>
      <clipPath
         id="clipPath14">
        <use
           xlink:href="#q"
           overflow="visible"
           id="use14" />
      </clipPath>
      <path
         clip-path="url(#r)"
         fill="#2649a2"
         d="m 462.159,299.938 h 57.388 c 0,0 11.841,0.105 13.973,10.238 v 20.801 c 0,0 -0.959,10.561 -15.679,10.561 l 15.679,32.32 h -10.772 l -15.894,-32.32 h -34.772 v 32.32 h -9.921 v -42.881 h 52.587 c 0,0 10.453,0.32 10.453,-7.039 l -0.105,-7.361 c 0,0 -0.854,-6.398 -11.413,-6.398 h -51.521 v -10.24 h -0.003 z"
         id="path9"
         style="stroke-width:4.70085" />
    </g>
    <g
       id="g10"
       transform="matrix(0.22119393,0,0,0.22119393,69.232377,30.850497)"
       style="stroke-width:4.70085">
      <defs
         id="defs10">
        <path
           id="path71"
           d="M -545.999,-657 H 1181.999 V 1071 H -545.999 Z" />
      </defs>
      <clipPath
         id="clipPath15">
        <use
           xlink:href="#s"
           overflow="visible"
           id="use15" />
      </clipPath>
      <path
         clip-path="url(#t)"
         fill="#2649a2"
         d="m 546.321,299.938 v 10.238 h 62.72 v -10.238 z"
         id="path10"
         style="stroke-width:4.70085" />
    </g>
    <g
       id="g11"
       transform="matrix(0.22119393,0,0,0.22119393,69.232377,30.850497)"
       style="stroke-width:4.70085">
      <defs
         id="defs11">
        <path
           id="path72"
           d="M -545.999,-657 H 1181.999 V 1071 H -545.999 Z" />
      </defs>
      <clipPath
         id="clipPath16">
        <use
           xlink:href="#u"
           overflow="visible"
           id="use16" />
      </clipPath>
      <path
         clip-path="url(#v)"
         fill="#2649a2"
         d="m 546.321,330.977 h 62.72 v 10.561 h -53.439 v 22.08 h 53.438 v 10.24 h -62.72 z"
         id="path11"
         style="stroke-width:4.70085" />
    </g>
  </g>
</svg>
